<mxfile host="65bd71144e">
    <diagram id="-Bn1zn_9udjPQ_ffXdiK" name="Page-1">
        <mxGraphModel dx="291" dy="1324" grid="1" gridSize="10" guides="1" tooltips="1" connect="1" arrows="1" fold="1" page="1" pageScale="1" pageWidth="850" pageHeight="1100" math="0" shadow="0">
            <root>
                <mxCell id="0"/>
                <mxCell id="1" parent="0"/>
                <mxCell id="76" value="" style="shape=table;startSize=0;container=1;collapsible=0;childLayout=tableLayout;" vertex="1" parent="1">
                    <mxGeometry x="50" y="10" width="180" height="160" as="geometry"/>
                </mxCell>
                <mxCell id="77" value="" style="shape=tableRow;horizontal=0;startSize=0;swimlaneHead=0;swimlaneBody=0;strokeColor=inherit;top=0;left=0;bottom=0;right=0;collapsible=0;dropTarget=0;fillColor=none;points=[[0,0.5],[1,0.5]];portConstraint=eastwest;" vertex="1" parent="76">
                    <mxGeometry width="180" height="20" as="geometry"/>
                </mxCell>
                <mxCell id="78" value="" style="shape=partialRectangle;html=1;whiteSpace=wrap;connectable=0;strokeColor=inherit;overflow=hidden;fillColor=none;top=0;left=0;bottom=0;right=0;pointerEvents=1;" vertex="1" parent="77">
                    <mxGeometry width="23" height="20" as="geometry">
                        <mxRectangle width="23" height="20" as="alternateBounds"/>
                    </mxGeometry>
                </mxCell>
                <mxCell id="79" value="" style="shape=partialRectangle;html=1;whiteSpace=wrap;connectable=0;strokeColor=inherit;overflow=hidden;fillColor=none;top=0;left=0;bottom=0;right=0;pointerEvents=1;" vertex="1" parent="77">
                    <mxGeometry x="23" width="22" height="20" as="geometry">
                        <mxRectangle width="22" height="20" as="alternateBounds"/>
                    </mxGeometry>
                </mxCell>
                <mxCell id="80" value="" style="shape=partialRectangle;html=1;whiteSpace=wrap;connectable=0;strokeColor=inherit;overflow=hidden;fillColor=none;top=0;left=0;bottom=0;right=0;pointerEvents=1;" vertex="1" parent="77">
                    <mxGeometry x="45" width="23" height="20" as="geometry">
                        <mxRectangle width="23" height="20" as="alternateBounds"/>
                    </mxGeometry>
                </mxCell>
                <mxCell id="81" value="" style="shape=partialRectangle;html=1;whiteSpace=wrap;connectable=0;strokeColor=inherit;overflow=hidden;fillColor=none;top=0;left=0;bottom=0;right=0;pointerEvents=1;" vertex="1" parent="77">
                    <mxGeometry x="68" width="22" height="20" as="geometry">
                        <mxRectangle width="22" height="20" as="alternateBounds"/>
                    </mxGeometry>
                </mxCell>
                <mxCell id="82" value="" style="shape=partialRectangle;html=1;whiteSpace=wrap;connectable=0;strokeColor=inherit;overflow=hidden;fillColor=none;top=0;left=0;bottom=0;right=0;pointerEvents=1;" vertex="1" parent="77">
                    <mxGeometry x="90" width="23" height="20" as="geometry">
                        <mxRectangle width="23" height="20" as="alternateBounds"/>
                    </mxGeometry>
                </mxCell>
                <mxCell id="83" value="" style="shape=partialRectangle;html=1;whiteSpace=wrap;connectable=0;strokeColor=inherit;overflow=hidden;fillColor=none;top=0;left=0;bottom=0;right=0;pointerEvents=1;" vertex="1" parent="77">
                    <mxGeometry x="113" width="22" height="20" as="geometry">
                        <mxRectangle width="22" height="20" as="alternateBounds"/>
                    </mxGeometry>
                </mxCell>
                <mxCell id="84" value="" style="shape=partialRectangle;html=1;whiteSpace=wrap;connectable=0;strokeColor=inherit;overflow=hidden;fillColor=none;top=0;left=0;bottom=0;right=0;pointerEvents=1;" vertex="1" parent="77">
                    <mxGeometry x="135" width="23" height="20" as="geometry">
                        <mxRectangle width="23" height="20" as="alternateBounds"/>
                    </mxGeometry>
                </mxCell>
                <mxCell id="85" value="" style="shape=partialRectangle;html=1;whiteSpace=wrap;connectable=0;strokeColor=inherit;overflow=hidden;fillColor=none;top=0;left=0;bottom=0;right=0;pointerEvents=1;" vertex="1" parent="77">
                    <mxGeometry x="158" width="22" height="20" as="geometry">
                        <mxRectangle width="22" height="20" as="alternateBounds"/>
                    </mxGeometry>
                </mxCell>
                <mxCell id="86" value="" style="shape=tableRow;horizontal=0;startSize=0;swimlaneHead=0;swimlaneBody=0;strokeColor=inherit;top=0;left=0;bottom=0;right=0;collapsible=0;dropTarget=0;fillColor=none;points=[[0,0.5],[1,0.5]];portConstraint=eastwest;" vertex="1" parent="76">
                    <mxGeometry y="20" width="180" height="20" as="geometry"/>
                </mxCell>
                <mxCell id="87" value="" style="shape=partialRectangle;html=1;whiteSpace=wrap;connectable=0;strokeColor=inherit;overflow=hidden;fillColor=none;top=0;left=0;bottom=0;right=0;pointerEvents=1;" vertex="1" parent="86">
                    <mxGeometry width="23" height="20" as="geometry">
                        <mxRectangle width="23" height="20" as="alternateBounds"/>
                    </mxGeometry>
                </mxCell>
                <mxCell id="88" value="" style="shape=partialRectangle;html=1;whiteSpace=wrap;connectable=0;strokeColor=inherit;overflow=hidden;fillColor=none;top=0;left=0;bottom=0;right=0;pointerEvents=1;" vertex="1" parent="86">
                    <mxGeometry x="23" width="22" height="20" as="geometry">
                        <mxRectangle width="22" height="20" as="alternateBounds"/>
                    </mxGeometry>
                </mxCell>
                <mxCell id="89" value="" style="shape=partialRectangle;html=1;whiteSpace=wrap;connectable=0;strokeColor=inherit;overflow=hidden;fillColor=none;top=0;left=0;bottom=0;right=0;pointerEvents=1;" vertex="1" parent="86">
                    <mxGeometry x="45" width="23" height="20" as="geometry">
                        <mxRectangle width="23" height="20" as="alternateBounds"/>
                    </mxGeometry>
                </mxCell>
                <mxCell id="90" value="" style="shape=partialRectangle;html=1;whiteSpace=wrap;connectable=0;strokeColor=inherit;overflow=hidden;fillColor=none;top=0;left=0;bottom=0;right=0;pointerEvents=1;" vertex="1" parent="86">
                    <mxGeometry x="68" width="22" height="20" as="geometry">
                        <mxRectangle width="22" height="20" as="alternateBounds"/>
                    </mxGeometry>
                </mxCell>
                <mxCell id="91" value="" style="shape=partialRectangle;html=1;whiteSpace=wrap;connectable=0;strokeColor=inherit;overflow=hidden;fillColor=none;top=0;left=0;bottom=0;right=0;pointerEvents=1;" vertex="1" parent="86">
                    <mxGeometry x="90" width="23" height="20" as="geometry">
                        <mxRectangle width="23" height="20" as="alternateBounds"/>
                    </mxGeometry>
                </mxCell>
                <mxCell id="92" value="" style="shape=partialRectangle;html=1;whiteSpace=wrap;connectable=0;strokeColor=inherit;overflow=hidden;fillColor=none;top=0;left=0;bottom=0;right=0;pointerEvents=1;" vertex="1" parent="86">
                    <mxGeometry x="113" width="22" height="20" as="geometry">
                        <mxRectangle width="22" height="20" as="alternateBounds"/>
                    </mxGeometry>
                </mxCell>
                <mxCell id="93" value="" style="shape=partialRectangle;html=1;whiteSpace=wrap;connectable=0;strokeColor=inherit;overflow=hidden;fillColor=none;top=0;left=0;bottom=0;right=0;pointerEvents=1;" vertex="1" parent="86">
                    <mxGeometry x="135" width="23" height="20" as="geometry">
                        <mxRectangle width="23" height="20" as="alternateBounds"/>
                    </mxGeometry>
                </mxCell>
                <mxCell id="94" value="" style="shape=partialRectangle;html=1;whiteSpace=wrap;connectable=0;strokeColor=inherit;overflow=hidden;fillColor=none;top=0;left=0;bottom=0;right=0;pointerEvents=1;" vertex="1" parent="86">
                    <mxGeometry x="158" width="22" height="20" as="geometry">
                        <mxRectangle width="22" height="20" as="alternateBounds"/>
                    </mxGeometry>
                </mxCell>
                <mxCell id="95" value="" style="shape=tableRow;horizontal=0;startSize=0;swimlaneHead=0;swimlaneBody=0;strokeColor=inherit;top=0;left=0;bottom=0;right=0;collapsible=0;dropTarget=0;fillColor=none;points=[[0,0.5],[1,0.5]];portConstraint=eastwest;" vertex="1" parent="76">
                    <mxGeometry y="40" width="180" height="20" as="geometry"/>
                </mxCell>
                <mxCell id="96" value="" style="shape=partialRectangle;html=1;whiteSpace=wrap;connectable=0;strokeColor=inherit;overflow=hidden;fillColor=none;top=0;left=0;bottom=0;right=0;pointerEvents=1;" vertex="1" parent="95">
                    <mxGeometry width="23" height="20" as="geometry">
                        <mxRectangle width="23" height="20" as="alternateBounds"/>
                    </mxGeometry>
                </mxCell>
                <mxCell id="97" value="" style="shape=partialRectangle;html=1;whiteSpace=wrap;connectable=0;strokeColor=inherit;overflow=hidden;fillColor=none;top=0;left=0;bottom=0;right=0;pointerEvents=1;" vertex="1" parent="95">
                    <mxGeometry x="23" width="22" height="20" as="geometry">
                        <mxRectangle width="22" height="20" as="alternateBounds"/>
                    </mxGeometry>
                </mxCell>
                <mxCell id="98" value="" style="shape=partialRectangle;html=1;whiteSpace=wrap;connectable=0;strokeColor=inherit;overflow=hidden;fillColor=none;top=0;left=0;bottom=0;right=0;pointerEvents=1;" vertex="1" parent="95">
                    <mxGeometry x="45" width="23" height="20" as="geometry">
                        <mxRectangle width="23" height="20" as="alternateBounds"/>
                    </mxGeometry>
                </mxCell>
                <mxCell id="99" value="" style="shape=partialRectangle;html=1;whiteSpace=wrap;connectable=0;strokeColor=inherit;overflow=hidden;fillColor=none;top=0;left=0;bottom=0;right=0;pointerEvents=1;" vertex="1" parent="95">
                    <mxGeometry x="68" width="22" height="20" as="geometry">
                        <mxRectangle width="22" height="20" as="alternateBounds"/>
                    </mxGeometry>
                </mxCell>
                <mxCell id="100" value="" style="shape=partialRectangle;html=1;whiteSpace=wrap;connectable=0;strokeColor=inherit;overflow=hidden;fillColor=none;top=0;left=0;bottom=0;right=0;pointerEvents=1;" vertex="1" parent="95">
                    <mxGeometry x="90" width="23" height="20" as="geometry">
                        <mxRectangle width="23" height="20" as="alternateBounds"/>
                    </mxGeometry>
                </mxCell>
                <mxCell id="101" value="" style="shape=partialRectangle;html=1;whiteSpace=wrap;connectable=0;strokeColor=inherit;overflow=hidden;fillColor=none;top=0;left=0;bottom=0;right=0;pointerEvents=1;" vertex="1" parent="95">
                    <mxGeometry x="113" width="22" height="20" as="geometry">
                        <mxRectangle width="22" height="20" as="alternateBounds"/>
                    </mxGeometry>
                </mxCell>
                <mxCell id="102" value="" style="shape=partialRectangle;html=1;whiteSpace=wrap;connectable=0;strokeColor=inherit;overflow=hidden;fillColor=none;top=0;left=0;bottom=0;right=0;pointerEvents=1;" vertex="1" parent="95">
                    <mxGeometry x="135" width="23" height="20" as="geometry">
                        <mxRectangle width="23" height="20" as="alternateBounds"/>
                    </mxGeometry>
                </mxCell>
                <mxCell id="103" value="" style="shape=partialRectangle;html=1;whiteSpace=wrap;connectable=0;strokeColor=inherit;overflow=hidden;fillColor=none;top=0;left=0;bottom=0;right=0;pointerEvents=1;" vertex="1" parent="95">
                    <mxGeometry x="158" width="22" height="20" as="geometry">
                        <mxRectangle width="22" height="20" as="alternateBounds"/>
                    </mxGeometry>
                </mxCell>
                <mxCell id="104" value="" style="shape=tableRow;horizontal=0;startSize=0;swimlaneHead=0;swimlaneBody=0;strokeColor=inherit;top=0;left=0;bottom=0;right=0;collapsible=0;dropTarget=0;fillColor=none;points=[[0,0.5],[1,0.5]];portConstraint=eastwest;" vertex="1" parent="76">
                    <mxGeometry y="60" width="180" height="20" as="geometry"/>
                </mxCell>
                <mxCell id="105" value="" style="shape=partialRectangle;html=1;whiteSpace=wrap;connectable=0;strokeColor=inherit;overflow=hidden;fillColor=none;top=0;left=0;bottom=0;right=0;pointerEvents=1;" vertex="1" parent="104">
                    <mxGeometry width="23" height="20" as="geometry">
                        <mxRectangle width="23" height="20" as="alternateBounds"/>
                    </mxGeometry>
                </mxCell>
                <mxCell id="106" value="" style="shape=partialRectangle;html=1;whiteSpace=wrap;connectable=0;strokeColor=inherit;overflow=hidden;fillColor=none;top=0;left=0;bottom=0;right=0;pointerEvents=1;" vertex="1" parent="104">
                    <mxGeometry x="23" width="22" height="20" as="geometry">
                        <mxRectangle width="22" height="20" as="alternateBounds"/>
                    </mxGeometry>
                </mxCell>
                <mxCell id="107" value="" style="shape=partialRectangle;html=1;whiteSpace=wrap;connectable=0;strokeColor=inherit;overflow=hidden;fillColor=none;top=0;left=0;bottom=0;right=0;pointerEvents=1;" vertex="1" parent="104">
                    <mxGeometry x="45" width="23" height="20" as="geometry">
                        <mxRectangle width="23" height="20" as="alternateBounds"/>
                    </mxGeometry>
                </mxCell>
                <mxCell id="108" value="" style="shape=partialRectangle;html=1;whiteSpace=wrap;connectable=0;strokeColor=inherit;overflow=hidden;fillColor=none;top=0;left=0;bottom=0;right=0;pointerEvents=1;" vertex="1" parent="104">
                    <mxGeometry x="68" width="22" height="20" as="geometry">
                        <mxRectangle width="22" height="20" as="alternateBounds"/>
                    </mxGeometry>
                </mxCell>
                <mxCell id="109" value="" style="shape=partialRectangle;html=1;whiteSpace=wrap;connectable=0;strokeColor=inherit;overflow=hidden;fillColor=none;top=0;left=0;bottom=0;right=0;pointerEvents=1;" vertex="1" parent="104">
                    <mxGeometry x="90" width="23" height="20" as="geometry">
                        <mxRectangle width="23" height="20" as="alternateBounds"/>
                    </mxGeometry>
                </mxCell>
                <mxCell id="110" value="" style="shape=partialRectangle;html=1;whiteSpace=wrap;connectable=0;strokeColor=inherit;overflow=hidden;fillColor=none;top=0;left=0;bottom=0;right=0;pointerEvents=1;" vertex="1" parent="104">
                    <mxGeometry x="113" width="22" height="20" as="geometry">
                        <mxRectangle width="22" height="20" as="alternateBounds"/>
                    </mxGeometry>
                </mxCell>
                <mxCell id="111" value="" style="shape=partialRectangle;html=1;whiteSpace=wrap;connectable=0;strokeColor=inherit;overflow=hidden;fillColor=none;top=0;left=0;bottom=0;right=0;pointerEvents=1;" vertex="1" parent="104">
                    <mxGeometry x="135" width="23" height="20" as="geometry">
                        <mxRectangle width="23" height="20" as="alternateBounds"/>
                    </mxGeometry>
                </mxCell>
                <mxCell id="112" value="" style="shape=partialRectangle;html=1;whiteSpace=wrap;connectable=0;strokeColor=inherit;overflow=hidden;fillColor=none;top=0;left=0;bottom=0;right=0;pointerEvents=1;" vertex="1" parent="104">
                    <mxGeometry x="158" width="22" height="20" as="geometry">
                        <mxRectangle width="22" height="20" as="alternateBounds"/>
                    </mxGeometry>
                </mxCell>
                <mxCell id="113" value="" style="shape=tableRow;horizontal=0;startSize=0;swimlaneHead=0;swimlaneBody=0;strokeColor=inherit;top=0;left=0;bottom=0;right=0;collapsible=0;dropTarget=0;fillColor=none;points=[[0,0.5],[1,0.5]];portConstraint=eastwest;" vertex="1" parent="76">
                    <mxGeometry y="80" width="180" height="20" as="geometry"/>
                </mxCell>
                <mxCell id="114" value="" style="shape=partialRectangle;html=1;whiteSpace=wrap;connectable=0;strokeColor=inherit;overflow=hidden;fillColor=none;top=0;left=0;bottom=0;right=0;pointerEvents=1;" vertex="1" parent="113">
                    <mxGeometry width="23" height="20" as="geometry">
                        <mxRectangle width="23" height="20" as="alternateBounds"/>
                    </mxGeometry>
                </mxCell>
                <mxCell id="115" value="" style="shape=partialRectangle;html=1;whiteSpace=wrap;connectable=0;strokeColor=inherit;overflow=hidden;fillColor=none;top=0;left=0;bottom=0;right=0;pointerEvents=1;" vertex="1" parent="113">
                    <mxGeometry x="23" width="22" height="20" as="geometry">
                        <mxRectangle width="22" height="20" as="alternateBounds"/>
                    </mxGeometry>
                </mxCell>
                <mxCell id="116" value="" style="shape=partialRectangle;html=1;whiteSpace=wrap;connectable=0;strokeColor=inherit;overflow=hidden;fillColor=none;top=0;left=0;bottom=0;right=0;pointerEvents=1;" vertex="1" parent="113">
                    <mxGeometry x="45" width="23" height="20" as="geometry">
                        <mxRectangle width="23" height="20" as="alternateBounds"/>
                    </mxGeometry>
                </mxCell>
                <mxCell id="117" value="" style="shape=partialRectangle;html=1;whiteSpace=wrap;connectable=0;strokeColor=inherit;overflow=hidden;fillColor=none;top=0;left=0;bottom=0;right=0;pointerEvents=1;" vertex="1" parent="113">
                    <mxGeometry x="68" width="22" height="20" as="geometry">
                        <mxRectangle width="22" height="20" as="alternateBounds"/>
                    </mxGeometry>
                </mxCell>
                <mxCell id="118" value="" style="shape=partialRectangle;html=1;whiteSpace=wrap;connectable=0;strokeColor=inherit;overflow=hidden;fillColor=none;top=0;left=0;bottom=0;right=0;pointerEvents=1;" vertex="1" parent="113">
                    <mxGeometry x="90" width="23" height="20" as="geometry">
                        <mxRectangle width="23" height="20" as="alternateBounds"/>
                    </mxGeometry>
                </mxCell>
                <mxCell id="119" value="" style="shape=partialRectangle;html=1;whiteSpace=wrap;connectable=0;strokeColor=inherit;overflow=hidden;fillColor=none;top=0;left=0;bottom=0;right=0;pointerEvents=1;" vertex="1" parent="113">
                    <mxGeometry x="113" width="22" height="20" as="geometry">
                        <mxRectangle width="22" height="20" as="alternateBounds"/>
                    </mxGeometry>
                </mxCell>
                <mxCell id="120" value="" style="shape=partialRectangle;html=1;whiteSpace=wrap;connectable=0;strokeColor=inherit;overflow=hidden;fillColor=none;top=0;left=0;bottom=0;right=0;pointerEvents=1;" vertex="1" parent="113">
                    <mxGeometry x="135" width="23" height="20" as="geometry">
                        <mxRectangle width="23" height="20" as="alternateBounds"/>
                    </mxGeometry>
                </mxCell>
                <mxCell id="121" value="" style="shape=partialRectangle;html=1;whiteSpace=wrap;connectable=0;strokeColor=inherit;overflow=hidden;fillColor=none;top=0;left=0;bottom=0;right=0;pointerEvents=1;" vertex="1" parent="113">
                    <mxGeometry x="158" width="22" height="20" as="geometry">
                        <mxRectangle width="22" height="20" as="alternateBounds"/>
                    </mxGeometry>
                </mxCell>
                <mxCell id="122" value="" style="shape=tableRow;horizontal=0;startSize=0;swimlaneHead=0;swimlaneBody=0;strokeColor=inherit;top=0;left=0;bottom=0;right=0;collapsible=0;dropTarget=0;fillColor=none;points=[[0,0.5],[1,0.5]];portConstraint=eastwest;" vertex="1" parent="76">
                    <mxGeometry y="100" width="180" height="20" as="geometry"/>
                </mxCell>
                <mxCell id="123" value="" style="shape=partialRectangle;html=1;whiteSpace=wrap;connectable=0;strokeColor=inherit;overflow=hidden;fillColor=none;top=0;left=0;bottom=0;right=0;pointerEvents=1;" vertex="1" parent="122">
                    <mxGeometry width="23" height="20" as="geometry">
                        <mxRectangle width="23" height="20" as="alternateBounds"/>
                    </mxGeometry>
                </mxCell>
                <mxCell id="124" value="" style="shape=partialRectangle;html=1;whiteSpace=wrap;connectable=0;strokeColor=inherit;overflow=hidden;fillColor=none;top=0;left=0;bottom=0;right=0;pointerEvents=1;" vertex="1" parent="122">
                    <mxGeometry x="23" width="22" height="20" as="geometry">
                        <mxRectangle width="22" height="20" as="alternateBounds"/>
                    </mxGeometry>
                </mxCell>
                <mxCell id="125" value="" style="shape=partialRectangle;html=1;whiteSpace=wrap;connectable=0;strokeColor=inherit;overflow=hidden;fillColor=none;top=0;left=0;bottom=0;right=0;pointerEvents=1;" vertex="1" parent="122">
                    <mxGeometry x="45" width="23" height="20" as="geometry">
                        <mxRectangle width="23" height="20" as="alternateBounds"/>
                    </mxGeometry>
                </mxCell>
                <mxCell id="126" value="" style="shape=partialRectangle;html=1;whiteSpace=wrap;connectable=0;strokeColor=inherit;overflow=hidden;fillColor=none;top=0;left=0;bottom=0;right=0;pointerEvents=1;" vertex="1" parent="122">
                    <mxGeometry x="68" width="22" height="20" as="geometry">
                        <mxRectangle width="22" height="20" as="alternateBounds"/>
                    </mxGeometry>
                </mxCell>
                <mxCell id="127" value="" style="shape=partialRectangle;html=1;whiteSpace=wrap;connectable=0;strokeColor=inherit;overflow=hidden;fillColor=none;top=0;left=0;bottom=0;right=0;pointerEvents=1;" vertex="1" parent="122">
                    <mxGeometry x="90" width="23" height="20" as="geometry">
                        <mxRectangle width="23" height="20" as="alternateBounds"/>
                    </mxGeometry>
                </mxCell>
                <mxCell id="128" value="" style="shape=partialRectangle;html=1;whiteSpace=wrap;connectable=0;strokeColor=inherit;overflow=hidden;fillColor=none;top=0;left=0;bottom=0;right=0;pointerEvents=1;" vertex="1" parent="122">
                    <mxGeometry x="113" width="22" height="20" as="geometry">
                        <mxRectangle width="22" height="20" as="alternateBounds"/>
                    </mxGeometry>
                </mxCell>
                <mxCell id="129" value="" style="shape=partialRectangle;html=1;whiteSpace=wrap;connectable=0;strokeColor=inherit;overflow=hidden;fillColor=none;top=0;left=0;bottom=0;right=0;pointerEvents=1;" vertex="1" parent="122">
                    <mxGeometry x="135" width="23" height="20" as="geometry">
                        <mxRectangle width="23" height="20" as="alternateBounds"/>
                    </mxGeometry>
                </mxCell>
                <mxCell id="130" value="" style="shape=partialRectangle;html=1;whiteSpace=wrap;connectable=0;strokeColor=inherit;overflow=hidden;fillColor=none;top=0;left=0;bottom=0;right=0;pointerEvents=1;" vertex="1" parent="122">
                    <mxGeometry x="158" width="22" height="20" as="geometry">
                        <mxRectangle width="22" height="20" as="alternateBounds"/>
                    </mxGeometry>
                </mxCell>
                <mxCell id="131" value="" style="shape=tableRow;horizontal=0;startSize=0;swimlaneHead=0;swimlaneBody=0;strokeColor=inherit;top=0;left=0;bottom=0;right=0;collapsible=0;dropTarget=0;fillColor=none;points=[[0,0.5],[1,0.5]];portConstraint=eastwest;" vertex="1" parent="76">
                    <mxGeometry y="120" width="180" height="20" as="geometry"/>
                </mxCell>
                <mxCell id="132" value="" style="shape=partialRectangle;html=1;whiteSpace=wrap;connectable=0;strokeColor=inherit;overflow=hidden;fillColor=none;top=0;left=0;bottom=0;right=0;pointerEvents=1;" vertex="1" parent="131">
                    <mxGeometry width="23" height="20" as="geometry">
                        <mxRectangle width="23" height="20" as="alternateBounds"/>
                    </mxGeometry>
                </mxCell>
                <mxCell id="133" value="" style="shape=partialRectangle;html=1;whiteSpace=wrap;connectable=0;strokeColor=inherit;overflow=hidden;fillColor=none;top=0;left=0;bottom=0;right=0;pointerEvents=1;" vertex="1" parent="131">
                    <mxGeometry x="23" width="22" height="20" as="geometry">
                        <mxRectangle width="22" height="20" as="alternateBounds"/>
                    </mxGeometry>
                </mxCell>
                <mxCell id="134" value="" style="shape=partialRectangle;html=1;whiteSpace=wrap;connectable=0;strokeColor=inherit;overflow=hidden;fillColor=none;top=0;left=0;bottom=0;right=0;pointerEvents=1;" vertex="1" parent="131">
                    <mxGeometry x="45" width="23" height="20" as="geometry">
                        <mxRectangle width="23" height="20" as="alternateBounds"/>
                    </mxGeometry>
                </mxCell>
                <mxCell id="135" value="" style="shape=partialRectangle;html=1;whiteSpace=wrap;connectable=0;strokeColor=inherit;overflow=hidden;fillColor=none;top=0;left=0;bottom=0;right=0;pointerEvents=1;" vertex="1" parent="131">
                    <mxGeometry x="68" width="22" height="20" as="geometry">
                        <mxRectangle width="22" height="20" as="alternateBounds"/>
                    </mxGeometry>
                </mxCell>
                <mxCell id="136" value="" style="shape=partialRectangle;html=1;whiteSpace=wrap;connectable=0;strokeColor=inherit;overflow=hidden;fillColor=none;top=0;left=0;bottom=0;right=0;pointerEvents=1;" vertex="1" parent="131">
                    <mxGeometry x="90" width="23" height="20" as="geometry">
                        <mxRectangle width="23" height="20" as="alternateBounds"/>
                    </mxGeometry>
                </mxCell>
                <mxCell id="137" value="" style="shape=partialRectangle;html=1;whiteSpace=wrap;connectable=0;strokeColor=inherit;overflow=hidden;fillColor=none;top=0;left=0;bottom=0;right=0;pointerEvents=1;" vertex="1" parent="131">
                    <mxGeometry x="113" width="22" height="20" as="geometry">
                        <mxRectangle width="22" height="20" as="alternateBounds"/>
                    </mxGeometry>
                </mxCell>
                <mxCell id="138" value="" style="shape=partialRectangle;html=1;whiteSpace=wrap;connectable=0;strokeColor=inherit;overflow=hidden;fillColor=none;top=0;left=0;bottom=0;right=0;pointerEvents=1;" vertex="1" parent="131">
                    <mxGeometry x="135" width="23" height="20" as="geometry">
                        <mxRectangle width="23" height="20" as="alternateBounds"/>
                    </mxGeometry>
                </mxCell>
                <mxCell id="139" value="" style="shape=partialRectangle;html=1;whiteSpace=wrap;connectable=0;strokeColor=inherit;overflow=hidden;fillColor=none;top=0;left=0;bottom=0;right=0;pointerEvents=1;" vertex="1" parent="131">
                    <mxGeometry x="158" width="22" height="20" as="geometry">
                        <mxRectangle width="22" height="20" as="alternateBounds"/>
                    </mxGeometry>
                </mxCell>
                <mxCell id="140" value="" style="shape=tableRow;horizontal=0;startSize=0;swimlaneHead=0;swimlaneBody=0;strokeColor=inherit;top=0;left=0;bottom=0;right=0;collapsible=0;dropTarget=0;fillColor=none;points=[[0,0.5],[1,0.5]];portConstraint=eastwest;" vertex="1" parent="76">
                    <mxGeometry y="140" width="180" height="20" as="geometry"/>
                </mxCell>
                <mxCell id="141" value="" style="shape=partialRectangle;html=1;whiteSpace=wrap;connectable=0;strokeColor=inherit;overflow=hidden;fillColor=none;top=0;left=0;bottom=0;right=0;pointerEvents=1;" vertex="1" parent="140">
                    <mxGeometry width="23" height="20" as="geometry">
                        <mxRectangle width="23" height="20" as="alternateBounds"/>
                    </mxGeometry>
                </mxCell>
                <mxCell id="142" value="" style="shape=partialRectangle;html=1;whiteSpace=wrap;connectable=0;strokeColor=inherit;overflow=hidden;fillColor=none;top=0;left=0;bottom=0;right=0;pointerEvents=1;" vertex="1" parent="140">
                    <mxGeometry x="23" width="22" height="20" as="geometry">
                        <mxRectangle width="22" height="20" as="alternateBounds"/>
                    </mxGeometry>
                </mxCell>
                <mxCell id="143" value="" style="shape=partialRectangle;html=1;whiteSpace=wrap;connectable=0;strokeColor=inherit;overflow=hidden;fillColor=none;top=0;left=0;bottom=0;right=0;pointerEvents=1;" vertex="1" parent="140">
                    <mxGeometry x="45" width="23" height="20" as="geometry">
                        <mxRectangle width="23" height="20" as="alternateBounds"/>
                    </mxGeometry>
                </mxCell>
                <mxCell id="144" value="" style="shape=partialRectangle;html=1;whiteSpace=wrap;connectable=0;strokeColor=inherit;overflow=hidden;fillColor=none;top=0;left=0;bottom=0;right=0;pointerEvents=1;" vertex="1" parent="140">
                    <mxGeometry x="68" width="22" height="20" as="geometry">
                        <mxRectangle width="22" height="20" as="alternateBounds"/>
                    </mxGeometry>
                </mxCell>
                <mxCell id="145" value="" style="shape=partialRectangle;html=1;whiteSpace=wrap;connectable=0;strokeColor=inherit;overflow=hidden;fillColor=none;top=0;left=0;bottom=0;right=0;pointerEvents=1;" vertex="1" parent="140">
                    <mxGeometry x="90" width="23" height="20" as="geometry">
                        <mxRectangle width="23" height="20" as="alternateBounds"/>
                    </mxGeometry>
                </mxCell>
                <mxCell id="146" value="" style="shape=partialRectangle;html=1;whiteSpace=wrap;connectable=0;strokeColor=inherit;overflow=hidden;fillColor=none;top=0;left=0;bottom=0;right=0;pointerEvents=1;" vertex="1" parent="140">
                    <mxGeometry x="113" width="22" height="20" as="geometry">
                        <mxRectangle width="22" height="20" as="alternateBounds"/>
                    </mxGeometry>
                </mxCell>
                <mxCell id="147" value="" style="shape=partialRectangle;html=1;whiteSpace=wrap;connectable=0;strokeColor=inherit;overflow=hidden;fillColor=none;top=0;left=0;bottom=0;right=0;pointerEvents=1;" vertex="1" parent="140">
                    <mxGeometry x="135" width="23" height="20" as="geometry">
                        <mxRectangle width="23" height="20" as="alternateBounds"/>
                    </mxGeometry>
                </mxCell>
                <mxCell id="148" value="" style="shape=partialRectangle;html=1;whiteSpace=wrap;connectable=0;strokeColor=inherit;overflow=hidden;fillColor=none;top=0;left=0;bottom=0;right=0;pointerEvents=1;" vertex="1" parent="140">
                    <mxGeometry x="158" width="22" height="20" as="geometry">
                        <mxRectangle width="22" height="20" as="alternateBounds"/>
                    </mxGeometry>
                </mxCell>
                <mxCell id="152" value="" style="shape=stencil(lVjbUlw5DPyaeVXZ8kX2M8n+B1Uhy9QSoAi7m/z99tkpD2N5TgNvw0Hti9RqST6km5/3t893Bw0/X1+e/rr79/jt9f6QvhxUj4/3dy/HV/w6pK+HdPP96eXuz5envx+/nf5+vt0st18/nv7ZVvh1wqmJxQ2l4ffpSxCt/3/442T/cHy8sE8qvTr7mPftc5ZcnH0I+/YlSM+fsTfpfv2o+/Y1S/Lra9u3tyQlOPtGzmNdSp/sozTiz1alzvZpOPiqfU8S0mRfpRH/d/P+jFFK2gfEcHb4GdEkRLJFF2sTQLt0EgMA3A45iDFAkzwDSpbeKSDMXrUgiYS5LzRqKsouXaXPl+7wayEAFZsTB3saCQSYEeYdLkJznXttUO28RRclbrIoSWcA2MSzp81q0bMoAZQmmrybWD4UHGkGtE4JDoFRmwFgC4lcqpJnvzajXgKb/Q5IWhI5VSkLIJIdYhLNHsBSrngRAFs7cRKoOa9vPM5hBPUsMl0SIfciGZUnQ/AOKonSKEp0glG5iEmd10fQmV7Afl4/Bcl0/TSnAVS7sqop2YlwoQwyX6QiyiI7j/oDFZplKBp5JlAUYynQfBVUiUbuC7WdlSjxriJ6XcmUz+hCbD6PSSB827oWJ3SUz7DPM4FQNSshKC6QXNkHI0gG61I0QYnIACYteUAnMQAFzAHqSKPrgOSdih0yKZogjesFY5bIAEGqu7QOud8DhJkXSIT4KYANZn3wRIWHLfo+IY2y/kGfglnMvoxG6KJ9JIlwhRW0fVxpp7QQrLzOo2X4YOLUoUwfTEwoDWHQmvggRCPKtSoLKMdKwSZdLvXz4MiuNrodEESWmKv4VjpDfRqAht11LPjC6g3EKs47vFPQ4MS2VEy6g44e6www3rLEodBn5pkUdqTgj4SmgglkDN6t6FqUjkaDm2eAUYHEHdzcYnmM29cBJnW+tBU6JGx11e1QqQQjTEE9gLEVYXK9muHSJIEyypKT4EabNYTJdWstjNHn+hSytIPbsEbKeW2+KrQ8dHBv6u8zWzEjsEL1duKLsYVdGv+u6gEs4zrYqv7S9Eh9iQP4S7QbgDhfuhQaBwxaab50DlS921KtUI8KIR8ANlNjq5/sDugbXX2oVL2tey5B7pUN2WtryHthzMx+jo98ZoaXigfQaXB5M9vGBXLp9VHuHcD66repLe9LbGnc2BMPalzxrx1U7tEp+bLLX/7QuTgh60Od96TVdQ6Nt25pPCS+tZ6JuSh5Uar8/It95jPech7oLD+Pu69SuVj9GWnyrwEL782ojhGBpv5nX7Lft8ePt2fz78eHh9Or++X//TM7Pp2e6NPX/wA=);lineShape=1;strokeColor=default;" vertex="1" parent="1">
                    <mxGeometry x="58.96265923432571" y="18.827361434575153" width="26.029447797242092" height="23.60572776769855" as="geometry"/>
                </mxCell>
                <mxCell id="162" value="" style="shape=stencil(lVfJblsxDPwaXwkt1HZO0/8IEKcxmsaB43T5+86roReTjgfN7VnWSFyGHGqTb14f7162mxRej4f99+2v3f3xcZO/bFLaPT9uD7sjvjb5dpNvHvaH7bfD/u35/vT75W7ZuXz92P9cTvh9wqlK7wsqhT+nldgl1H8rX0+Ap93zGSA30WYACUdkAgjSsgFklZquAxIMiAagReIggCbDmlSKtEBMilLVAGqVSnzQINn60IooMamoRHtDwwoxqUYpw5qkUohJFQZU67RK1s8ANElrxAfkwZqEuEViUrnwAdSoJEpapwErIImSKGmWZKkRBw2rRknWpAguEXovgGABQUYngCTDhrXK4D5nW3CZVgOCGp1Bktj+lclzf5DAaJG8PWHG+OP9zecs0hy3NM1daSeZJACFlWw8Ud3EnlaluAYWacIACMUCqsRCAFnaBekGKZw6pFsAchzIDSj1Zn1ORQIrzeFLE4BO6qBkyRcA1lO1+zTAh8QAKsnybiESA0SvC8hDIcwGIFgmRXCXRAmlGS014BTbj6Db/WhfJG06RB0xZLAkqPeYR6gGUV+agWnIJbOplH92/4izs52leJAAjeFrH8NAIR7HsHq4piBI51dUa1MJNAmj+YEHHVBJv4DXxTWkMqeBDwEdabZeY4UBcJ5rYSNRoQUxhp0u4BWdX5rX/rNIX5vanIzgikb6cGyTCisgzEs/jqtX5g6lIJmO0t2AhEwSYbtg0jIUkjzHKUsr8yBsTAinyqzFgGmG2d/9DBkzbUc4z7UvXEAcRnfLlneQUuIwUtytkqOFk/NznkP12eRC7M8Xkwj2M8oNKa72qWou7V3dfjqpqddAjGLs/DqL8F0+WHtEkSXXTsFBXpWud8XVpatl7CikU6avueAea9BYKoGffQ7+BwAf76/Ph93T0+nxev6/f61i6fTSzbd/AQ==);lineShape=1;strokeColor=default;" vertex="1" parent="1">
                    <mxGeometry x="55.80842961079492" y="-8.00953238914991" width="11.109261742807314" height="15.299527811403992" as="geometry"/>
                </mxCell>
                <mxCell id="163" value="" style="shape=stencil(lVbLctswDPwaXXdIEHzgnKb/kZk4tadunHGcPv6+UDVSDVpGRjdJ5prALhbAkB7e909vu4HC++V8+r77dXi+7If0ZSA6vO5358NFn4b0OKSHl9N59+18+nh9nt7fnsaT49OP08/xH35PuCqQOqIo/Jm+RALFf1++ToDj4fUK0AJaMwDKiMkBEIQNgAPG13sACahkADmjyn1ADAEhGERjcHWuaOBsAYLoXCFKSjEAScgeTYRgaZIyM70KKA3SAcQVIjOSpemKh1VEEpR8c0W+D6ACFguoCOwoUUCpp6k4IUlfG6pDcs43kCVJhc7NCSiCbUB1uXIdIHOCCyCjFYfUgNTdQKiO0MyIVrcaXdmyVoaVrS4OWQXU1LOkN4jDUsso0QIYxfG0cF9JVR3l6Sw3hiM0z3CC3Fm6ojjCaUjNAtSz0SluTbp1bshuaSituXNoQ3F0yNLroFmJY2ktDeYeUJxa0uLrhFODiiNcXAy/ANgtbzVQ7gBhJvqOQ1OnW0F0Uth6Ps2ELMNBUB1Ob0bDOH0chrRv20b/yXijjfOTEbqWCnLSrUi2hMrsi3W5CMWGz3M+9+qhWHpojm8924pmm1dw2U8FLXXnvV7HKn7ccF43g7glnpKQeEO+2mlJNvCpwyJb/n29tG32Tcgvh9V1zZsFn+93+vB/O3w5HI/Tcnn9e79N6qdpE02PfwE=);lineShape=1;strokeColor=default;" vertex="1" parent="1">
                    <mxGeometry x="81.82975084758016" y="-5.192729429311385" width="3.4490133352961276" height="10.790667746269913" as="geometry"/>
                </mxCell>
                <mxCell id="164" value="" style="shape=stencil(rVjLbhsxDPwaXwmJpF7nNP2PAHFqo64dOO7r78utsarFXU9aoLeNzBFFcoaispGHt93T63bD4e1yPn3eft8/X3Yb+bBh3h932/P+Yl8bedzIw8vpvP10Pn09Pl//fn2aLKevL6dv0w4/rrgYqdUJxeHndSUQ6++Fj1f7w/54a9+oRGcfwn17YZLs7fm+vSrlNNgrCbBPQhoG+ymidB+Qu/8ZwBlGkKMHKFMt4EiFeASkRikCQCQea1CEKk5SKQOgKnEDVShUxyq0SAl4sJwUB6gUQNCx+DrHgJmhiyP1lVX7vluPWaiBrMb5vDdJjXLfvlAe7Y0pqcKI63igxFQA87iR6kikShloTY3JwQMiSJERyVVNjXlYDE79FoOAolkO0xhDylQB8yr7oE1PiNstURqDLkwBZGkiZhsBiQIoXGuUZQRUyDwDuCxZVA2IwQDBAfK8xTqgzCF2MQRSBFDP7iZzGtYBfb8buSWQVjtxVg/IuNIt+yOhtlca1bEO1pSgQgul0UPtGlwHZNLxsrKegSo9AVwntvsOZMmO5Dqxka8CxdVAcbzfjN4Z6MFOLM5DmFfWAcXrITcSJCBrAuwBqC8ZEdTFEOHQYPQWpzh5T0DsPBTYyG4um15qu+GQIPqd3AGJMtaoo2u1vCIPiaJTEM95WAdY+x4LYZlmwG8rdVsACtKoLo6ksLkaXUvzMfxXQE6eG9MWIOikvrmaalGlbVpyV9A0XoFK28zKwQOQB+ZF2+i1X/cQ5lbaJVfgPCZppn+/d212AJ1M2mKOLlCjNmzoWAfJsN+bBxk92NCI2GrzTxsVFyvsAsu3hs1cDXhYPmYMgLIUg793DaDgzqp+tI8ZOrBfXQSJFL0dSJy9wIh18frBarPdXLzvPN+8PS7A4jgJXreLaBW/xHwyeabsX9YKv2wXXLCRCfD/n1/O79rbx59n+sv+cLi+8m9/9896W7r+S0AefwE=);lineShape=1;strokeColor=default;" vertex="1" parent="1">
                    <mxGeometry x="99.9879774943629" y="-5.06203311493141" width="16.333786860596003" height="15.19699425086015" as="geometry"/>
                </mxCell>
                <mxCell id="165" value="" style="shape=stencil(lVfZctswDPwavWJIguDxnKb/kZk4tadunHGcHn9fqB7aBiTvpG+yxRWwOJcTP7xvn942Uwrvp+Ph++bX7vm0nfjLlNLudbs57k76NPHjxA8vh+Pm2/Hw8fp8/v32NJ+cn34cfs5f+H3GsVAPMyqFP+d/YiPmf/98PQP2u9cbQGokxQBSIQ4AIJQtIAtxAYBOIRtACRTrfQA3ShZQAyXAQTIVS7rmYXMVUIQkWpeUNHCpVKrWgtrMHQASieWQE0XEIdL87gbAiRhYyJma2MR14gbC2sf3bgHAAmfvUqrUcKZbs4BMHYRVS63ZPKRIIcLiY0s6FshBAcXmIUYqyEKlYi1UioAzR4qWM4/aWj8vPm3KGNRFXnw/UADtmYvvhQD90boTV0YkCZyX8frSCSOH6+cbhWr5BtibCuh2vsRMFRTRbMFGKHYSEKKZAlvKTBX3plgOWhQwaZoEZ6FD0prlFDxAUNnJotXaYHWvTr2FMjJztxEc6UQZVMbcaq6yK+7+ZTMzRdTMOi4shzYSc3ceuVUFe38eeG55UkXn+1ga116Di62PRfm587r2XG/qZgTnWyS24zSqHAABbZ2qW/4yTK4CevHyQjk14FIMl3F1mReJGvCpa05tZZc2duk6IPm9pnFAld3YT5iuQxZUtjrgOPQOt7+EhQoLeGxrP7sxqaGuIBM644IdMU3DhBQJFTu3VSNVMGGWeRM4kfT8Qr+gxdCHt5cQaR5BEnSYZKeoYPPHhQH1Bwlh1WdOKcB4ztLGN3NH369+YgfYORzGTrr6k0EbMBNnx1eQHBQv/POQ3evn65g9l76E+VIV74Zdo4LUZhtb/kapIdWvgOz2vq5xxLh61a/iEe2b/75MfQKgD9e728tuvz9f/W7f+7ue/nW+J/LjXw==);lineShape=1;strokeColor=default;" vertex="1" parent="1">
                    <mxGeometry x="37.42100943233231" y="17.54398355387525" width="11.162123190434256" height="12.710749845672389" as="geometry"/>
                </mxCell>
                <mxCell id="166" value="" style="shape=stencil(lVbZcuMgEPwavXYBA8PwnOM/UhVnrVqvnXKcPf5+0aoUe9hoFKr8gBENc3Q3DHT3tn963Q3BvV3Op++7X+PzZT/Q/RDCeNzvzuOljgZ6GOju5XTefTuf3o/P8//Xp2nlNPpx+jnt8HvGlYQKmX7uzzzjIyT+m3mcAYfxeAtgkAZQgPMGQFBYAVICp3WAdw7OKYQQYjGOyCDRAEHO6wApEH1CISS3DsgCp5OoZ3pZBzCBsgYUxLAOiBmh6EZc6/ApgvxSlI8jBGIVNoNJAxjOqGtNsUnabrWH1zlLhjO45NqUxSMbGUewpl5mJCthWrb7AAR4owmh7qcj4lpSo0LRo+iQ2OZFEnjXA8iV+tQTklSB+v+SJkM9qVXPRlkrk7M+YeqbbQGic5iIYZ0QFg+6ZZ7ROAmghqo2tWsRU+MAtnhSAHfqk8G6TBsWUPVTGn3mRVErTgnfOIBtlKGNaMMne424d71f7OGLVwOBNVM37p6IrNdvXG7citN7BDZ42l5t2ZSm59ZQ49Lxz9sV27s2IBnhE6FoA3YQI/wYF51f11uMrt2JPeuZ2/7a8eTUaszOt7JLUkc9i2vjsftV1VT6+ND9mtoG1MH18fYyHg7z2+/2e/vYq1PzQ5Ee/gI=);lineShape=1;strokeColor=default;" vertex="1" parent="1">
                    <mxGeometry x="40.407002519694686" y="36.71335539883421" width="2.864927844133435" height="8.665119780214699" as="geometry"/>
                </mxCell>
                <mxCell id="167" value="" style="shape=stencil(7VjLbtwwDPyavRIi9aB0TtP/CJBNs2iaDTbp6+9LdyHXou0peuolt43CsfgYDmkf4s3r493L8SDh9e1y/nz8frp/ezzEDweR0/Pj8XJ6s1+HeHuINw/ny/HT5fz1+f7698vdZDn9+nL+Nj3hxxXHiTJPKAk/ryeBQvl98PFq/3R6XtiLUGvOvui+fayUwmCfScK+fWaSOtibhy3vA0qgPDoklSQBQCKNAyDZDQwAkaSMIWQKFcSQ+/M6QAW6lJTKCKiJIqiCZbWOQbfYH7ENyJR0BJRemG2AUE4joBIjYjQKzqVGEWTJiBDHoDkY94BPwpSiv6KBK9jyWlY+CQCkXqdF1AGwj5li9nkVkKZG7OqQ4AVKVUZ77oXZsY9jFapRBaRIPZGq+Q8y1EicfezttJegPNaszifbRbb2HAXAmqeCiGOjOpagZHhD1h7hDBAqDcQsXmJKhZpkHHD9rEwFxNBWtFAsMYtWmRHmE2geuyKMUVchRYBC0VWu9BbfS5M4FaukQJSqriQjdHptA9gPKwMU1D2lN9fsUiMF48rq5PmtpGiaaA9xId0KBMDI6QFMjAacSbdrCIVZMpdc0BopIw0IfsDZSQIioHOIi4ZgAKiBeGRrKdRAj9ZVliYAIl/we4m5JKDSzdLKPmjEJZsEOfi0VnSDDaex41ThkDZAdmy1iYeGifrlyvIWQFptS/DkU2qA3tP0GIXJGqiiFo196C9bFHXcesIFuCHaOHDkMyeR3k8AXQFQTxv5nFSaFgJADhuqgQbE+zr2vo79t3XMURsHYK93yQ2TRIz2N/XUtheuBkKI0QOydCe3AYnKGEMKuNuC72c7YSBivNqVuML25OCXVuN6RCLWV9rZvsA1IxO7588atV2FnpDFW7Sg1vQ8YlyDleBZBhCNVtuq5ROaO9KZ/oIZwn7dTnB9iX7yC8xl7pWZY4XOVL+uzcHsdWQqzh6p7r9+sPm7vf3483Xo4fT0dP24tPy//5pkR9cvUfH2Fw==);lineShape=1;strokeColor=default;" vertex="1" parent="1">
                    <mxGeometry x="36.831078113728836" y="53.830493620145944" width="10.592614196552653" height="15.370321902110488" as="geometry"/>
                </mxCell>
            </root>
        </mxGraphModel>
    </diagram>
</mxfile>